v -0.5 1 0.5
v 0.5 1 0.5
v -0.5 1 -0.5
v 0.5 1 -0.5
v -0.5 1 -0.5
v 0.5 1 -0.5
v -0.5 1 -1.5
v 0.5 1 -1.5
v -0.5 1 -1.5
v 0.5 1 -1.5
v -0.5 1 -2.5
v 0.5 1 -2.5
v 0.5 1 0.5
v 1.5 1 0.5
v 0.5 1 -0.5
v 1.5 1 -0.5
v 0.5 0 -0.5
v 1.5 0 -0.5
v 0.5 0 -1.5
v 1.5 0 -1.5
v 0.5 1 -1.5
v 1.5 1 -1.5
v 0.5 1 -2.5
v 1.5 1 -2.5
v 1.5 1 0.5
v 2.5 1 0.5
v 1.5 1 -0.5
v 2.5 1 -0.5
v 1.5 1 -0.5
v 2.5 1 -0.5
v 1.5 1 -1.5
v 2.5 1 -1.5
v 1.5 1 -1.5
v 2.5 1 -1.5
v 1.5 1 -2.5
v 2.5 1 -2.5
vn 0 1 0
vn 0 1 0
vn 0 1 0
vn 0 1 0
vn 0 1 0
vn 0 1 0
vn 0 1 0
vn 0 1 0
vn 0 1 0
vn 0 1 0
vn 0 1 0
vn 0 1 0
vn 0 1 0
vn 0 1 0
vn 0 1 0
vn 0 1 0
vn 0 1 0
vn 0 1 0
vn 0 1 0
vn 0 1 0
vn 0 1 0
vn 0 1 0
vn 0 1 0
vn 0 1 0
vn 0 1 0
vn 0 1 0
vn 0 1 0
vn 0 1 0
vn 0 1 0
vn 0 1 0
vn 0 1 0
vn 0 1 0
vn 0 1 0
vn 0 1 0
vn 0 1 0
vn 0 1 0
vt 0 1
vt 1 1
vt 0 0
vt 1 0
vt 0 1
vt 1 1
vt 0 0
vt 1 0
vt 0 1
vt 1 1
vt 0 0
vt 1 0
vt 0 1
vt 1 1
vt 0 0
vt 1 0
vt 0 1
vt 1 1
vt 0 0
vt 1 0
vt 0 1
vt 1 1
vt 0 0
vt 1 0
vt 0 1
vt 1 1
vt 0 0
vt 1 0
vt 0 1
vt 1 1
vt 0 0
vt 1 0
vt 0 1
vt 1 1
vt 0 0
vt 1 0
f 1/1/1 2/2/2 4/4/4
f 1/1/1 4/4/4 3/3/3
f 13/13/13 14/14/14 16/16/16
f 13/13/13 16/16/16 15/15/15
f 25/25/25 26/26/26 28/28/28
f 25/25/25 28/28/28 27/27/27
f 5/5/5 6/6/6 8/8/8
f 5/5/5 8/8/8 7/7/7
f 17/17/17 18/18/18 20/20/20
f 17/17/17 20/20/20 19/19/19
f 29/29/29 30/30/30 32/32/32
f 29/29/29 32/32/32 31/31/31
f 9/9/9 10/10/10 12/12/12
f 9/9/9 12/12/12 11/11/11
f 21/21/21 22/22/22 24/24/24
f 21/21/21 24/24/24 23/23/23
f 33/33/33 34/34/34 36/36/36
f 33/33/33 36/36/36 35/35/35
